# AST/ASF file generated using VICON BodyLanguage
# -----------------------------------------------
:version 1.10
:name VICON
:units
  mass 1.0
  length 0.45
  angle deg
:documentation
   .ast/.asf automatically generated from VICON data using
   VICON BodyBuilder and BodyLanguage model FoxedUp or BRILLIANT.MOD
:root
   order TX TY TZ RX RY RZ
   axis XYZ
   position 0 0 0  
   orientation 0 0 0 
:bonedata
  begin
     id 1 
     name lhipjoint
     direction 0.64773 -0.699417 0.302095 
     length 2.48597 
     axis 0 0 0  XYZ
  end
  begin
     id 2 
     name lfemur
     direction 0.34202 -0.939693 0  
     length 6.71947  
     axis 0 0 20  XYZ
    dof rx ry rz
    limits (-160.0 20.0)
           (-70.0 70.0)
           (-60.0 70.0)
  end
  begin
     id 3 
     name ltibia
     direction 0.34202 -0.939693 0   
     length 8.08777   
     axis 0 0 20   XYZ
    dof rx
    limits (-10.0 170.0)
  end
  begin
     id 4 
     name lfoot
     direction 0.0808503 -0.222134 0.971658   
     length 2.08264   
     axis -90 7.62852e-016 20   XYZ
    dof rx rz
    limits (-45.0 90.0)
           (-70.0 20.0)
  end
  begin
     id 5 
     name ltoes
     direction 1.53502e-011 -4.22007e-011 1   
     length 1.04662   
     axis -90 7.62852e-016 20   XYZ
    dof rx
    limits (-90.0 20.0)
  end
  begin
     id 6 
     name rhipjoint
     direction -0.610924 -0.726792 0.313919   
     length 2.39233  
     axis 0 0 0  XYZ 
  end
  begin
     id 7 
     name rfemur
     direction -0.34202 -0.939693 0   
     length 6.96955   
     axis 0 0 -20   XYZ
    dof rx ry rz
    limits (-160.0 20.0)
           (-70.0 70.0)
           (-70.0 60.0)
  end
  begin
     id 8 
     name rtibia
     direction -0.34202 -0.939693 0   
     length 8.19584   
     axis 0 0 -20   XYZ
    dof rx
    limits (-10.0 170.0)
 end
 begin
     id 9 
     name rfoot
     direction -0.077777 -0.213691 0.9738   
     length 2.07539  
     axis -90 -7.62852e-016 -20   XYZ
    dof rx rz
    limits (-45.0 90.0)
           (-20.0 70.0)
  end
  begin
     id 10 
     name rtoes
     direction -1.53558e-011 -4.22006e-011 1   
     length 1.04381   
     axis -90 -7.62852e-016 -20   XYZ
    dof rx
    limits (-90.0 20.0)
  end
  begin
     id 11 
     name lowerback
     direction -0.00971646 0.996074 0.0879841   
     length 1.67643   
     axis 0 0 0   XYZ
    dof rx ry rz
    limits (-20.0 45.0)
           (-30.0 30.0)
           (-30.0 30.0)
  end
  begin
     id 12 
     name upperback
     direction 0.0127391 0.991676 0.128127   
     length 1.63741   
     axis 0 0 0   XYZ
    dof rx ry rz
    limits (-20.0 45.0)
           (-30.0 30.0)
           (-30.0 30.0)
  end
  begin
     id 13 
     name thorax
     direction 0.0167583 0.996049 0.0872067   
     length 1.65931   
     axis 0 0 0   XYZ
    dof rx ry rz
    limits (-20.0 45.0)
           (-30.0 30.0)
           (-30.0 30.0)
  end
  begin
     id 14 
     name lowerneck
     direction -0.0317829 0.998312 0.0486079   
     length 1.79021   
     axis 0 0 0   XYZ
    dof rx ry rz
    limits (-20.0 45.0)
           (-30.0 30.0)
           (-30.0 30.0)
  end
  begin
     id 15 
     name upperneck
     direction 0.0896851 0.972452 -0.215159   
     length 1.78797   
     axis 0 0 0   XYZ
    dof rx ry rz
    limits (-20.0 45.0)
           (-30.0 30.0)
           (-30.0 30.0)
  end
  begin
     id 16
     name head
     direction 0.0310949 0.996503 -0.0775582  
     length 1.81549  
     axis 0 0 0   XYZ
    dof rx ry rz
    limits (-20.0 45.0)
           (-30.0 30.0)
           (-30.0 30.0)
  end
  begin
     id 17 
     name lclavicle
     direction 0.853638 0.502051 -0.138733  
     length 3.31627  
     axis 0 0 0   XYZ
    dof ry rz
    limits (-20.0 10.0)
           (0.0 20.0)
  end
  begin
     id 18 
     name lhumerus
     direction 1 -4.48962e-011 -1.41788e-018   
     length 5.54893   
     axis 180 -30 -90   XYZ
    dof rx ry rz
    limits (-60.0 90.0)
           (-90.0 90.0)
           (-90.0 90.0)
  end
  begin
     id 19
     name lradius
     direction 1 -4.48962e-011 -4.95754e-027   
     length 3.02898   
     axis 180 -30 -90   XYZ
    dof rx
    limits (-10.0 170.0)
  end
  begin
     id 20
     name lwrist
     direction 1 -4.48952e-011 -1.03764e-026   
     length 1.51449   
     axis 9.09556e-015 90 90   XYZ
    dof ry
    limits (-180.0 0.0)
 end
  begin
     id 21 
     name lhand
     direction 1 -4.4902e-011 -2.07528e-026   
     length 0.640951   
     axis 1.3242e-014 90 90   XYZ
    dof rx rz
    limits (-90.0 90.0)
           (-45.0 45.0)
  end
  begin
     id 22 
     name lfingers
     direction 1 -4.49014e-011 -4.15056e-026   
     length 0.516751   
     axis 2.64841e-014 90 90   XYZ
    dof rx
    limits (0.0 90.0)
  end
  begin
     id 23
     name lthumb
     direction 0.707107 -6.35008e-011 0.707107   
     length 0.741954   
     axis -90 45 2.85299e-015   XYZ
    dof rx rz
    limits (-45.0 45.0)
           (-45.0 45.0)
  end
  begin
     id 24 
     name rclavicle
     direction -0.888531 0.455324 -0.0565039   
     length 3.20126  
     axis 0 0 0   XYZ 
    dof ry rz
    limits (-10.0 20.0)
           (-20.0 0.0)
  end
  begin
     id 25 
     name rhumerus
     direction -1 -4.48946e-011 -8.98298e-028  
     length 5.3519   
     axis 180 30 90   XYZ
    dof rx ry rz
    limits (-90.0 60.0)
           (-90.0 90.0)
           (-90.0 90.0)
  end
  begin
     id 26 
     name rradius
     direction -1 -4.4899e-011 -3.18779e-027   
     length 3.02531   
     axis 180 30 90   XYZ
    dof rx
    limits (-10.0 170.0)
  end
  begin
     id 27 
     name rwrist
     direction -1 -4.4897e-011 -1.03764e-026   
     length 1.51266   
     axis 9.09556e-015 -90 -90   XYZ
    dof ry
    limits (-180.0 0.0)
  end
  begin
     id 28
     name rhand
     direction -1 -4.48941e-011 -2.07528e-026   
     length 0.78389   
     axis 1.3242e-014 -90 -90   XYZ
    dof rx rz
    limits (-90.0 90.0)
           (-45.0 45.0)
  end
  begin
     id 29
     name rfingers
     direction -1 -4.49012e-011 -4.15056e-026   
     length 0.631992   
     axis 2.64841e-014 -90 -90   XYZ
    dof rx
    limits (0.0 90.0)
  end
  begin
     id 30
     name rthumb
     direction -0.707107 -6.3496e-011 0.707107   
     length 0.907418   
     axis -90 -45 -2.85299e-015   XYZ
    dof rx rz
    limits (-45.0 45.0)
           (-45.0 45.0)
  end
:hierarchy
  begin
    root lhipjoint rhipjoint lowerback
    lhipjoint lfemur
    lfemur ltibia
    ltibia lfoot
    lfoot ltoes
    rhipjoint rfemur
    rfemur rtibia
    rtibia rfoot
    rfoot rtoes
    lowerback upperback
    upperback thorax
    thorax lowerneck lclavicle rclavicle
    lowerneck upperneck
    upperneck head
    lclavicle lhumerus
    lhumerus lradius
    lradius lwrist
    lwrist lhand lthumb
    lhand lfingers
    rclavicle rhumerus
    rhumerus rradius
    rradius rwrist
    rwrist rhand rthumb
    rhand rfingers
  end

#!OML:ASF E:\Style3\Style3.ASF
:FULLY-SPECIFIED
:DEGREES
1297
root -1.85739 14.8969 0.224232 -463.302 105.7 -525.936
lowerback 218.502 179.098 179.133
upperback 10.7338 1.98659 2.79022
thorax -7.04684 1.14859 2.61274
lowerneck 0.864229 -4.61247 -2.72548
upperneck -6.35624 -5.19723 19.7849
head -1.36138 -3.04434 6.51666
rclavicle 4.21423e-014 4.27387e-014
rhumerus -55.1372 20.5707 -81.9974
rradius 81.7509
rwrist -11.1813
rhand 2.76774 21.5321
rfingers 7.12502
rthumb 28.2386 -6.36008
lclavicle 4.21423e-014 4.27387e-014
lhumerus -48.1722 -27.9194 85.4652
lradius 81.1713
lwrist 13.9881
lhand 16.457 26.5739
lfingers 7.12502
lthumb 41.2213 51.4196
rfemur -111.383 -4.43114 5.29148
rtibia 67.6507
rfoot -18.698 -6.35792
rtoes -31.3206
lfemur -107.016 5.40636 -40.9088
ltibia 66.6323
lfoot -19.2 10.691
ltoes -23.4026
1298
root -1.84495 14.9204 0.214255 -464.308 106.282 -527.054
lowerback 218.306 179.07 179.062
upperback 10.6997 1.98022 2.80937
thorax -7.02287 1.13983 2.67565
lowerneck 0.930844 -4.64574 -2.65498
upperneck -6.40492 -5.24298 19.6507
head -1.38846 -3.07375 6.46506
rclavicle -3.26007e-014 -1.23246e-014
rhumerus -55.1365 20.4587 -82.1288
rradius 81.4273
rwrist -10.9493
rhand 2.52884 21.7657
rfingers 7.12502
rthumb 28.0102 -6.16401
lclavicle -3.26007e-014 -1.23246e-014
lhumerus -48.202 -27.8254 85.5425
lradius 81.0574
lwrist 14.1501
lhand 16.4536 26.7963
lfingers 7.12502
lthumb 41.2181 51.643
rfemur -111.293 -4.19116 4.98534
rtibia 67.1636
rfoot -18.5627 -6.04003
rtoes -31.264
lfemur -106.896 5.60826 -41.0374
ltibia 66.4417
lfoot -19.3624 10.8523
ltoes -23.0146
1299
root -1.83278 14.9466 0.203641 -465.203 106.864 -528.026
lowerback 218.19 179.067 179.017
upperback 10.6635 1.95288 2.80488
thorax -7.02435 1.12277 2.7066
lowerneck 1.22469 -4.65151 -2.60747
upperneck -6.73104 -5.19193 19.6648
head -1.54092 -3.08562 6.47868
rclavicle -9.22361e-014 -6.16232e-014
rhumerus -54.879 20.211 -82.263
rradius 80.9256
rwrist -10.6336
rhand 2.65341 22.006
rfingers 7.12502
rthumb 28.1293 -5.90416
lclavicle -9.22361e-014 -6.16232e-014
lhumerus -48.2176 -27.7326 85.535
lradius 80.8848
lwrist 14.253
lhand 16.7158 26.6357
lfingers 7.12502
lthumb 41.4642 51.4027
rfemur -111.166 -3.96841 4.71001
rtibia 66.6768
rfoot -18.3105 -5.66206
rtoes -30.6626
lfemur -106.762 5.81622 -41.151
ltibia 66.2574
lfoot -19.5415 10.9161
ltoes -22.0799
1300
root -1.81887 14.9718 0.192945 -466.043 107.426 -528.934
lowerback 218.132 179.1 179.062
upperback 10.6446 1.91275 2.77316
thorax -7.02106 1.10131 2.66575
lowerneck 1.37464 -4.65739 -2.81633
upperneck -7.05145 -5.13475 20.0155
head -1.64793 -3.08917 6.6386
rclavicle -1.11319e-014 -1.5704e-014
rhumerus -54.8413 20.1561 -82.3528
rradius 80.8083
rwrist -10.17
rhand 2.50722 22.1259
rfingers 7.12502
rthumb 27.9896 -5.80718
lclavicle -1.11319e-014 -1.5704e-014
lhumerus -48.1982 -27.6538 85.4083
lradius 80.8653
lwrist 14.4091
lhand 17.0999 26.6044
lfingers 7.12502
lthumb 41.8244 51.253
rfemur -111.009 -3.74232 4.47774
rtibia 66.1948
rfoot -17.8946 -5.24969
rtoes -29.8766
lfemur -106.614 6.00987 -41.2794
ltibia 66.0644
lfoot -19.5958 11.1142
ltoes -21.8682
1301
root -1.80311 14.9945 0.183977 -466.858 107.978 -529.802
lowerback 218.036 179.123 179.098
upperback 10.6639 1.88663 2.76098
thorax -6.96529 1.086 2.64618
lowerneck 1.37967 -4.67543 -2.86037
upperneck -7.27108 -5.12169 20.1439
head -1.70811 -3.09997 6.69309
rclavicle -3.10104e-014 -1.47101e-014
rhumerus -54.771 20.1353 -82.3762
rradius 80.672
rwrist -9.9921
rhand 2.41021 22.1575
rfingers 7.12502
rthumb 27.8968 -5.79067
lclavicle -3.10104e-014 -1.47101e-014
lhumerus -48.1796 -27.5914 85.277
lradius 80.9066
lwrist 14.5391
lhand 17.2863 26.7364
lfingers 7.12502
lthumb 41.9992 51.3268
rfemur -110.826 -3.51122 4.24851
rtibia 65.7197
rfoot -17.4351 -4.74819
rtoes -28.4942
lfemur -106.44 6.23471 -41.4754
ltibia 65.8555
lfoot -19.5044 11.4684
ltoes -22.5061
1302
root -1.78795 15.0192 0.176774 -467.678 108.596 -530.694
lowerback 217.922 179.101 179.024
upperback 10.6408 1.87122 2.74888
thorax -6.95328 1.07434 2.67984
lowerneck 1.44931 -4.6709 -2.74516
upperneck -7.41516 -5.09057 20.0911
head -1.7713 -3.09925 6.66279
rclavicle 0 -1.39149e-014
rhumerus -54.8558 20.189 -82.4423
rradius 80.6557
rwrist -9.94197
rhand 2.44368 22.0045
rfingers 7.12502
rthumb 27.9288 -5.93843
lclavicle 0 -1.39149e-014
lhumerus -48.2475 -27.5173 85.1986
lradius 80.8976
lwrist 14.7121
lhand 17.4295 26.8485
lfingers 7.12502
lthumb 42.1334 51.3937
rfemur -110.637 -3.2523 3.93735
rtibia 65.2241
rfoot -17.0407 -4.09415
rtoes -25.8936
lfemur -106.298 6.51276 -41.7199
ltibia 65.641
lfoot -19.4989 11.6397
ltoes -22.609
1303
root -1.77334 15.0476 0.168821 -468.488 109.154 -531.505
lowerback 217.909 179.107 179.016
upperback 10.6249 1.85229 2.76394
thorax -6.96656 1.06159 2.70767
lowerneck 1.52623 -4.67269 -2.79228
upperneck -7.57435 -5.05939 20.2388
head -1.82816 -3.10145 6.72482
rclavicle 6.04305e-014 3.08116e-014
rhumerus -54.8998 20.2239 -82.425
rradius 80.6063
rwrist -9.89176
rhand 2.48799 22.0138
rfingers 7.12502
rthumb 27.9712 -5.92227
lclavicle 6.04305e-014 3.08116e-014
lhumerus -48.3188 -27.4351 85.1591
lradius 80.9254
lwrist 14.9738
lhand 17.3763 27.0008
lfingers 7.12502
lthumb 42.0836 51.5628
rfemur -110.388 -2.99707 3.70664
rtibia 64.733
rfoot -16.7801 -3.64962
rtoes -24.6136
lfemur -106.059 6.79926 -41.9527
ltibia 65.4
lfoot -19.4012 11.8557
ltoes -23.2371
1304
root -1.76035 15.0743 0.161393 -469.117 109.68 -532.167
lowerback 217.826 179.141 179.02
upperback 10.6948 1.81185 2.80276
thorax -6.86131 1.0391 2.76431
lowerneck 1.25097 -4.6951 -2.95621
upperneck -7.59566 -5.09343 20.4288
head -1.77006 -3.10789 6.8055
rclavicle 7.39479e-014 6.55989e-014
rhumerus -54.7477 20.3139 -82.4669
rradius 80.4269
rwrist -9.34179
rhand 1.9631 22.0622
rfingers 7.12502
rthumb 27.4693 -5.95463
lclavicle 7.39479e-014 6.55989e-014
lhumerus -48.1068 -27.404 85.0182
lradius 80.8555
lwrist 15.1839
lhand 17.3808 27.0193
lfingers 7.12502
lthumb 42.0877 51.5799
rfemur -110.192 -2.77601 3.48426
rtibia 64.2313
rfoot -16.6167 -3.42055
rtoes -24.7699
lfemur -105.841 7.01902 -42.1444
ltibia 65.1465
lfoot -19.4157 12.097
ltoes -23.7026
1305
root -1.74531 15.0967 0.15276 -469.545 110.224 -532.677
lowerback 217.679 179.202 179.077
upperback 10.7329 1.75236 2.81678
thorax -6.76631 1.00844 2.77447
lowerneck 1.07292 -4.72755 -3.15284
upperneck -7.66394 -5.12918 20.6606
head -1.73956 -3.12341 6.90961
rclavicle -6.91771e-014 -1.98785e-016
rhumerus -54.6175 20.329 -82.531
rradius 80.2916
rwrist -9.01308
rhand 1.63102 22.0337
rfingers 7.12502
rthumb 27.1517 -6.03312
lclavicle -6.91771e-014 -1.98785e-016
lhumerus -47.7766 -27.401 84.9238
lradius 80.5995
lwrist 15.308
lhand 17.2394 27.0282
lfingers 7.12502
lthumb 41.9552 51.6332
rfemur -110.038 -2.63187 3.24953
rtibia 63.7393
rfoot -16.4704 -3.15302
rtoes -24.6682
lfemur -105.637 7.13934 -42.3231
ltibia 64.8797
lfoot -19.4426 12.4194
ltoes -24.2579
